<?xml version="1.0" standalone="no"?>
<!DOCTYPE svg PUBLIC "-//W3C//DTD SVG 20010904//EN"
 "http://www.w3.org/TR/2001/REC-SVG-20010904/DTD/svg10.dtd">
<svg version="1.0" xmlns="http://www.w3.org/2000/svg"
 width="554.000000pt" height="554.000000pt" viewBox="0 0 554.000000 554.000000"
 preserveAspectRatio="xMidYMid meet">

<g transform="translate(0.000000,554.000000) scale(0.100000,-0.100000)"
fill="#000000" stroke="none">
<path d="M4450 4663 c-156 -26 -495 -218 -815 -461 -197 -149 -559 -503 -749
-730 -38 -46 -44 -58 -23 -46 27 17 309 264 432 379 354 330 661 550 970 696
118 55 207 89 236 89 67 0 -7 -197 -173 -458 -34 -54 -89 -140 -123 -192 -197
-302 -285 -446 -417 -685 -92 -165 -118 -203 -118 -174 0 19 -31 49 -52 49
-35 0 -59 -41 -282 -484 -85 -168 -165 -319 -177 -334 l-22 -27 6 100 c4 55
12 194 17 310 l11 210 40 51 c22 28 89 107 150 174 103 114 156 190 142 203
-10 11 -82 -33 -118 -71 -20 -20 -72 -92 -118 -160 -78 -116 -82 -121 -89 -95
-4 15 -5 49 -2 76 4 30 3 47 -4 47 -26 0 -81 -270 -82 -400 0 -30 -9 -158 -21
-285 -23 -252 -21 -279 27 -291 60 -15 107 51 279 392 68 137 131 258 139 269
15 19 15 18 16 -16 0 -22 -14 -64 -34 -105 -78 -158 -185 -426 -229 -574 -75
-251 -87 -572 -27 -690 22 -43 35 -50 91 -50 109 0 290 158 504 440 176 232
549 668 766 895 63 66 150 163 194 215 43 52 109 129 145 170 119 136 110 133
-65 -16 -44 -38 -105 -90 -135 -115 -185 -156 -565 -589 -1014 -1154 -155
-196 -331 -355 -391 -355 -13 0 -26 9 -33 24 -30 66 -22 348 14 507 92 409
439 1105 924 1854 255 394 326 524 355 649 31 135 -17 191 -145 169z"/>
<path d="M2017 4246 c-71 -70 -230 -370 -432 -811 -60 -131 -169 -346 -214
-423 -45 -77 -145 -192 -167 -192 -28 0 -57 101 -73 260 -12 120 -24 148 -68
156 -40 8 -75 -12 -91 -53 -17 -44 -32 -206 -39 -425 -6 -186 -7 -197 -19
-152 -15 60 -44 328 -44 407 0 92 -16 58 -31 -65 -18 -142 -18 -487 -1 -633
34 -285 79 -559 99 -607 25 -60 99 -63 131 -4 15 28 17 75 16 514 -1 265 2
482 5 482 3 -1 17 -7 31 -15 38 -22 112 -18 160 7 125 67 240 252 480 773 102
222 198 414 221 443 l19 25 0 -29 c0 -15 -10 -118 -22 -229 -20 -177 -23 -251
-23 -655 0 -379 3 -478 18 -595 32 -249 63 -423 115 -640 59 -242 222 -739
261 -793 32 -44 100 -106 108 -98 4 4 9 40 11 80 4 70 0 85 -87 342 -176 521
-254 902 -282 1374 -18 307 -1 801 36 1075 8 61 24 174 34 251 28 205 11 264
-75 264 -36 0 -49 -6 -77 -34z"/>
<path d="M3683 3919 c-144 -87 -349 -327 -476 -559 -38 -68 -70 -140 -63 -140
2 0 23 30 47 67 76 118 197 262 363 433 227 233 242 250 226 249 -8 0 -52 -23
-97 -50z"/>
<path d="M2615 3116 c-104 -48 -204 -197 -246 -364 -19 -76 -20 -89 -7 -165 9
-56 17 -82 27 -82 8 0 24 -31 40 -75 55 -157 112 -220 206 -228 67 -5 111 9
164 54 78 67 132 184 157 339 52 333 -39 545 -233 545 -40 0 -74 -8 -108 -24z
m175 -72 c38 -23 77 -87 91 -149 17 -77 6 -282 -20 -372 -26 -90 -51 -136
-104 -190 -80 -83 -149 -77 -210 19 -99 155 -124 363 -61 498 80 168 208 250
304 194z"/>
<path d="M435 2740 c-33 -36 -19 -160 18 -160 6 0 21 -10 33 -21 42 -40 64 -6
59 92 -4 87 -66 137 -110 89z"/>
</g>
</svg>
