<svg version="1.2" xmlns="http://www.w3.org/2000/svg" viewBox="0 0 554 554" width="554" height="554">
	<title>Name_Logo black-svg</title>
	<style>
		.s0 { fill: #000000 } 
	</style>
	<g id="Layer">
		<g id="Folder 1">
			<path id="Layer" class="s0" d="m459.5 104.6c-2.9 12.5-10 25.5-35.5 64.9-48.5 74.9-83.2 144.5-92.4 185.4-3.6 15.9-4.4 44.1-1.4 50.7 0.7 1.5 2 2.4 3.3 2.4 6 0 23.6-15.9 39.1-35.5 44.9-56.5 82.9-99.8 101.4-115.4 3-2.5 9.1-7.7 13.5-11.5 17.5-14.9 18.4-15.2 6.5-1.6-3.6 4.1-10.2 11.8-14.5 17-4.4 5.2-13.1 14.9-19.4 21.5-21.7 22.7-59 66.3-76.6 89.5-21.4 28.2-39.5 44-50.4 44-5.6 0-6.9-0.7-9.1-5-6-11.8-4.8-43.9 2.7-69 4.4-14.8 15.1-41.6 22.9-57.4 2-4.1 3.4-8.3 3.4-10.5-0.1-3.4-0.1-3.5-1.6-1.6-0.8 1.1-7.1 13.2-13.9 26.9-17.2 34.1-21.9 40.7-27.9 39.2-4.8-1.2-5-3.9-2.7-29.1 1.2-12.7 2.1-25.5 2.1-28.5 0.1-13 5.6-40 8.2-40 0.7 0 0.8 1.7 0.4 4.7-0.3 2.7-0.2 6.1 0.2 7.6 0.7 2.6 1.1 2.1 8.9-9.5 4.6-6.8 9.8-14 11.8-16 3.6-3.8 10.8-8.2 11.8-7.1 1.4 1.3-3.9 8.9-14.2 20.3-6.1 6.7-12.8 14.6-15 17.4l-4 5.1-1.1 21c-0.5 11.6-1.3 25.5-1.7 31l-0.6 10 2.2-2.7c1.2-1.5 9.2-16.6 17.7-33.4 22.3-44.3 24.7-48.4 28.2-48.4 2.1 0 5.2 3 5.2 4.9 0 2.9 2.6-0.9 11.8-17.4 13.2-23.9 22-38.3 41.7-68.5 3.4-5.2 8.9-13.8 12.3-19.2 16.6-26.1 24-45.8 17.3-45.8-2.9 0-11.8 3.4-23.6 8.9-30.9 14.6-61.6 36.6-97 69.6-12.3 11.5-40.5 36.2-43.2 37.9-2.1 1.2-1.5 0 2.3-4.6 19-22.7 55.2-58.1 74.9-73 32-24.3 65.9-43.5 81.5-46.1 12.8-2.2 17.6 3.4 14.5 16.9z"/>
			<path id="Layer" class="s0" d="m209.4 126c8.6 0 10.3 5.9 7.5 26.4-1 7.7-2.6 19-3.4 25.1-3.7 27.4-5.4 76.8-3.6 107.5 2.8 47.2 10.6 85.3 28.2 137.4 8.7 25.7 9.1 27.2 8.7 34.2-0.2 4-0.7 7.6-1.1 8-0.8 0.8-7.6-5.4-10.8-9.8-3.9-5.4-20.2-55.1-26.1-79.3-5.2-21.7-8.3-39.1-11.5-64-1.5-11.7-1.8-21.6-1.8-59.5 0-40.4 0.3-47.8 2.3-65.5 1.2-11.1 2.2-21.4 2.2-22.9v-2.9l-1.9 2.5c-2.3 2.9-11.9 22.1-22.1 44.3-24 52.1-35.5 70.6-48 77.3-4.8 2.5-12.2 2.9-16 0.7-1.4-0.8-2.8-1.4-3.1-1.5-0.3 0-0.6 21.7-0.5 48.2 0.1 43.9-0.1 48.6-1.6 51.4-3.2 5.9-10.6 5.6-13.1-0.4-2-4.8-6.5-32.2-9.9-60.7-1.7-14.6-1.7-49.1 0.1-63.3 1.5-12.3 3.1-15.7 3.1-6.5 0 7.9 2.9 34.7 4.4 40.7 1.2 4.5 1.3 3.4 1.9-15.2 0.7-21.9 2.2-38.1 3.9-42.5 1.6-4.1 5.1-6.1 9.1-5.3 4.4 0.8 5.6 3.6 6.8 15.6 1.6 15.9 4.5 26 7.3 26 2.2 0 12.2-11.5 16.7-19.2 4.5-7.7 15.4-29.2 21.4-42.3 20.2-44.1 36.1-74.1 43.2-81.1 2.8-2.8 4.1-3.4 7.7-3.4z"/>
			<path id="Layer" class="s0" d="m378 157.1c1.6-0.1 0.1 1.6-22.6 24.9-16.6 17.1-28.7 31.5-36.3 43.3-2.4 3.7-4.5 6.7-4.7 6.7-0.7 0 2.5-7.2 6.3-14 12.7-23.2 33.2-47.2 47.6-55.9 4.5-2.7 8.9-5 9.7-5z"/>
			<path id="Layer" fill-rule="evenodd" class="s0" d="m272.3 240c19.4 0 28.5 21.2 23.3 54.5-2.5 15.5-7.9 27.2-15.7 33.9-5.3 4.5-9.7 5.9-16.4 5.4-9.4-0.8-15.1-7.1-20.6-22.8-1.6-4.4-3.2-7.5-4-7.5-1 0-1.8-2.6-2.7-8.2-1.3-7.6-1.2-8.9 0.7-16.5 4.2-16.7 14.2-31.6 24.6-36.4 3.4-1.6 6.8-2.4 10.8-2.4zm-23.7 29c-6.3 13.5-3.8 34.3 6.1 49.8 6.1 9.6 13 10.2 21 1.9 5.3-5.4 7.8-10 10.4-19 2.6-9 3.7-29.5 2-37.2-1.4-6.2-5.3-12.6-9.1-14.9-9.6-5.6-22.4 2.6-30.4 19.4z"/>
			<path id="Layer" class="s0" d="m54.5 288.9c0.5 9.8-1.7 13.2-5.9 9.2-1.2-1.1-2.7-2.1-3.3-2.1-3.7 0-5.1-12.4-1.8-16 4.4-4.8 10.6 0.2 11 8.9z"/>
		</g>
	</g>
</svg>